<svg width="16" height="13" viewBox="0 0 16 13" fill="none" xmlns="http://www.w3.org/2000/svg">
<path fill-rule="evenodd" clip-rule="evenodd" d="M0 4.5C0 4.36739 0.0526785 4.24021 0.146447 4.14645C0.240215 4.05268 0.367392 4 0.5 4H11.808C11.9406 4 12.0678 4.05268 12.1616 4.14645C12.2553 4.24021 12.308 4.36739 12.308 4.5C12.308 4.63261 12.2553 4.75979 12.1616 4.85355C12.0678 4.94732 11.9406 5 11.808 5H0.5C0.367392 5 0.240215 4.94732 0.146447 4.85355C0.0526785 4.75979 0 4.63261 0 4.5ZM0 0.5C0 0.367392 0.0526785 0.240215 0.146447 0.146447C0.240215 0.0526785 0.367392 0 0.5 0H15.5C15.6326 0 15.7598 0.0526785 15.8536 0.146447C15.9473 0.240215 16 0.367392 16 0.5C16 0.632608 15.9473 0.759785 15.8536 0.853553C15.7598 0.947321 15.6326 1 15.5 1H0.5C0.367392 1 0.240215 0.947321 0.146447 0.853553C0.0526785 0.759785 0 0.632608 0 0.5ZM0 8.5C0 8.36739 0.0526785 8.24021 0.146447 8.14645C0.240215 8.05268 0.367392 8 0.5 8H15.5C15.6326 8 15.7598 8.05268 15.8536 8.14645C15.9473 8.24021 16 8.36739 16 8.5C16 8.63261 15.9473 8.75979 15.8536 8.85355C15.7598 8.94732 15.6326 9 15.5 9H0.5C0.367392 9 0.240215 8.94732 0.146447 8.85355C0.0526785 8.75979 0 8.63261 0 8.5ZM0 12.5C0 12.3674 0.0526785 12.2402 0.146447 12.1464C0.240215 12.0527 0.367392 12 0.5 12H11.808C11.9406 12 12.0678 12.0527 12.1616 12.1464C12.2553 12.2402 12.308 12.3674 12.308 12.5C12.308 12.6326 12.2553 12.7598 12.1616 12.8536C12.0678 12.9473 11.9406 13 11.808 13H0.5C0.367392 13 0.240215 12.9473 0.146447 12.8536C0.0526785 12.7598 0 12.6326 0 12.5Z" fill="black"/>
</svg>
